<?xml version="1.0" encoding="UTF-8" standalone="no"?>
<!-- Created with Inkscape (http://www.inkscape.org/) -->

<svg
   width="58.737263mm"
   height="62.138622mm"
   viewBox="0 0 58.737263 62.138622"
   version="1.1"
   id="svg5"
   inkscape:version="1.2.1 (9c6d41e4, 2022-07-14)"
   sodipodi:docname="fire-icon.svg"
   xmlns:inkscape="http://www.inkscape.org/namespaces/inkscape"
   xmlns:sodipodi="http://sodipodi.sourceforge.net/DTD/sodipodi-0.dtd"
   xmlns="http://www.w3.org/2000/svg"
   xmlns:svg="http://www.w3.org/2000/svg">
  <sodipodi:namedview
     id="namedview7"
     pagecolor="#ffffff"
     bordercolor="#000000"
     borderopacity="0.25"
     inkscape:showpageshadow="2"
     inkscape:pageopacity="0.0"
     inkscape:pagecheckerboard="0"
     inkscape:deskcolor="#d1d1d1"
     inkscape:document-units="mm"
     showgrid="false"
     inkscape:zoom="1.9449614"
     inkscape:cx="164.78476"
     inkscape:cy="197.94737"
     inkscape:window-width="1792"
     inkscape:window-height="1067"
     inkscape:window-x="0"
     inkscape:window-y="25"
     inkscape:window-maximized="1"
     inkscape:current-layer="layer1" />
  <defs
     id="defs2" />
  <g
     inkscape:label="Layer 1"
     inkscape:groupmode="layer"
     id="layer1"
     transform="translate(-44.990739,-94.346864)">
    <path
       style="fill:#666666;stroke-width:0.264583"
       d="m 51.928537,100.06034 c 26.952101,1.76306 35.60375,13.37882 33.464674,29.65569 -2.568728,19.54622 -21.332416,18.56089 -31.832252,11.29093 18.111798,-12.87482 16.541536,-32.76402 -1.632422,-40.94662 z"
       id="path2727"
       sodipodi:nodetypes="cscc" />
    <path
       style="fill:#ffcc00;stroke-width:0.264583"
       d="m 61.514715,103.51468 c 0,0 -15.881639,3.69483 -16.513718,24.28815 -0.519217,16.91624 8.746975,26.33734 28.800639,28.44063 19.847418,2.08166 29.245894,-9.5443 29.880664,-24.12053 1.10681,-25.41584 -18.257407,-37.776066 -18.257407,-37.776066 0,0 11.521706,18.639286 6.121587,27.999486 -5.40012,9.36021 -11.571549,1.84991 -12.344725,-4.26373 -0.796791,-6.30037 1.862325,-14.00536 3.328009,-16.30481 -4.136057,2.88278 -10.414683,8.94599 -11.032469,20.00934 -0.275049,4.92559 0.919441,8.86502 -2.848483,10.4072 -4.460418,1.82561 -6.02035,-4.33679 -6.367431,-7.63159 -0.534045,-5.06963 2.861792,-10.52383 7.135545,-13.5263 -7.146269,-1.09811 -16.79704,6.27964 -16.144004,19.7125 -4.233738,-12.63232 1.417483,-20.88306 8.241793,-27.23428 z"
       id="path799"
       sodipodi:nodetypes="cssscsscssaccc" />
    <circle
       id="path1025"
       style="fill:#ffcc00;stroke:#000000;stroke-width:0.264583"
       cx="74.139214"
       cy="125.0164"
       r="0.018119764" />
    <circle
       id="path1027"
       style="fill:#ffcc00;stroke:#000000;stroke-width:0.264583"
       cx="78.084236"
       cy="136.57941"
       r="0.018119764" />
    <path
       style="fill:#d45500;stroke-width:0.264583"
       d="m 75.907673,126.37676 c 4.080706,5.01796 5.114245,7.27894 3.945022,11.69903 -6.064127,6.22642 -19.601279,1.91964 -20.949429,-9.6585 -6.346927,21.77689 14.187643,29.30114 28.839474,20.81339 8.534978,-4.94428 13.42738,-13.63609 9.658504,-26.11877 -0.524003,6.43671 -3.028286,9.86458 -8.434187,11.1549 -1.44277,-4.19074 -7.666525,-7.56879 -13.059384,-7.89005 z"
       id="path1147"
       sodipodi:nodetypes="cccsccc" />
  </g>
</svg>
